<svg width="403" height="588" viewBox="0 0 403 588" fill="none" xmlns="http://www.w3.org/2000/svg">
<g clip-path="url(#clip0_601_16498)">
<path d="M340.61 120.072C284.755 105.106 226.978 138.464 212.011 194.318C202.776 228.787 212.135 263.984 233.604 289.397C167.908 296.671 109.984 343.267 91.9394 410.611L120.917 418.376C137.991 354.654 198.497 313.781 262.108 318.868L264.004 348.012L292.982 355.777L309.196 331.486C366.829 358.885 398.791 424.535 381.717 488.257L410.695 496.022C428.74 428.677 401.874 359.362 348.617 320.214C379.902 308.937 405.62 283.139 414.856 248.67C429.822 192.816 396.464 135.038 340.61 120.072ZM332.845 149.05C373.023 159.815 396.644 200.728 385.878 240.906C375.113 281.083 334.2 304.704 294.022 293.939C253.845 283.173 230.224 242.261 240.989 202.083C251.755 161.905 292.667 138.284 332.845 149.05ZM260.122 362.501L222.339 445.552L280.295 461.081L289.1 370.266L260.122 362.501Z" fill="black" fill-opacity="0.03"/>
</g>
<defs>
<clipPath id="clip0_601_16498">
<rect width="480" height="480" fill="white" transform="translate(124.316) rotate(15)"/>
</clipPath>
</defs>
</svg>
